<svg xmlns="http://www.w3.org/2000/svg" width="22" height="22" fill="none"><path fill="url(#a)" d="M3.208 18.333a1.32 1.32 0 0 1-.962-.412 1.32 1.32 0 0 1-.413-.963V5.042c0-.367.138-.688.413-.963a1.32 1.32 0 0 1 .962-.412h15.584c.366 0 .687.137.962.412.275.275.413.596.413.963v11.916c0 .367-.138.688-.413.963a1.32 1.32 0 0 1-.962.412H3.208ZM11 11.413l-7.792-5.11v10.655h15.584V6.302L11 11.412Zm0-1.376 7.7-4.995H3.323L11 10.037ZM3.208 6.303v-1.26 11.916V6.302Z"/><defs><linearGradient id="a" x1="11" x2="10.667" y1="3.667" y2="18.326" gradientUnits="userSpaceOnUse"><stop stop-color="#A30376"/><stop offset="1" stop-color="#D900BC"/></linearGradient></defs></svg>