<svg xmlns="http://www.w3.org/2000/svg" width="22" height="22" fill="none"><path fill="url(#a)" d="M5.958 21.083a1.32 1.32 0 0 1-.962-.412 1.32 1.32 0 0 1-.413-.963V2.292c0-.367.138-.688.413-.963a1.32 1.32 0 0 1 .962-.412h10.084c.366 0 .687.137.962.412.275.275.413.596.413.963v17.416c0 .367-.138.688-.413.963a1.32 1.32 0 0 1-.962.412H5.958Zm0-2.062v.687h10.084v-.687H5.958Zm0-1.375h10.084V4.354H5.958v13.292Zm0-14.667h10.084v-.687H5.958v.687Z"/><defs><linearGradient id="a" x1="11" x2="10.528" y1=".917" y2="21.072" gradientUnits="userSpaceOnUse"><stop stop-color="#A30376"/><stop offset="1" stop-color="#D900BC"/></linearGradient></defs></svg>