<svg xmlns="http://www.w3.org/2000/svg" width="20" height="20" fill="none"><g clip-path="url(#a)"><path fill="url(#b)" d="M17.078 2.908A9.865 9.865 0 0 0 13.852.749 9.901 9.901 0 0 0 10.037 0C4.554 0 .085 4.448.08 9.908c0 1.748.46 3.45 1.328 4.956L0 20l5.279-1.377a9.997 9.997 0 0 0 4.759 1.206h.005c5.484 0 9.952-4.448 9.957-9.913a9.866 9.866 0 0 0-2.922-7.009Zm-7.04 15.243a8.281 8.281 0 0 1-4.214-1.15l-.302-.18-3.131.818.836-3.041-.196-.314a8.173 8.173 0 0 1-1.264-4.381c0-4.533 3.713-8.23 8.276-8.23a8.269 8.269 0 0 1 7.646 5.085c.416 1 .629 2.071.626 3.153-.005 4.55-3.718 8.24-8.277 8.24Zm4.539-6.167c-.248-.124-1.47-.723-1.7-.808-.228-.08-.395-.123-.558.124-.167.246-.644.808-.787.969-.143.166-.291.185-.54.062-.247-.125-1.05-.385-1.999-1.23-.74-.657-1.237-1.47-1.385-1.716-.143-.247-.014-.38.11-.504.11-.11.248-.29.372-.432.126-.143.167-.248.249-.413.081-.167.042-.31-.02-.433-.062-.124-.558-1.345-.768-1.838-.2-.486-.405-.419-.558-.425-.143-.009-.31-.009-.477-.009a.919.919 0 0 0-.665.31c-.228.247-.867.845-.867 2.067 0 1.22.891 2.395 1.017 2.56.123.167 1.75 2.666 4.248 3.74.59.257 1.054.408 1.417.523.597.19 1.135.162 1.565.1.477-.072 1.47-.6 1.68-1.178.206-.58.206-1.075.143-1.18-.062-.104-.229-.165-.477-.29Z"/></g><defs><linearGradient id="b" x1="10" x2="9.78" y1="0" y2="19.998" gradientUnits="userSpaceOnUse"><stop stop-color="#A30376"/><stop offset="1" stop-color="#D900BC"/></linearGradient><clipPath id="a"><path fill="#fff" d="M0 0h20v20H0z"/></clipPath></defs></svg>